<svg xmlns="http://www.w3.org/2000/svg" xmlns:xlink="http://www.w3.org/1999/xlink" width="1024" zoomAndPan="magnify" viewBox="0 0 768 767.999994" height="1024" preserveAspectRatio="xMidYMid meet" version="1.0"><rect x="-76.8" width="921.6" fill="#ffffff" y="-76.799999" height="921.599993" fill-opacity="1"/><rect x="-76.8" width="921.6" fill="#ffffff" y="-76.799999" height="921.599993" fill-opacity="1"/><path fill="#0353a4" d="M 374.703125 83.15625 C 237.894531 92.921875 88.828125 108.664062 82.429688 113.933594 C 78.910156 116.859375 77.757812 121.121094 78.976562 126.714844 C 97.722656 212.511719 110.878906 378.148438 111.554688 536.960938 C 111.945312 627.398438 112.320312 632.523438 118.824219 641.394531 C 143.410156 674.816406 223.585938 676.089844 464.554688 646.875 C 536.691406 638.125 549.34375 634.335938 556.566406 619.328125 C 561.425781 609.21875 567.472656 525.160156 567.472656 467.664062 L 567.472656 424.144531 C 575.382812 417.597656 690.332031 324.070312 692.773438 314.898438 C 693.773438 311.171875 692.542969 304.714844 690.140625 301.070312 C 683.554688 291.0625 645.824219 258.890625 633.082031 252.40625 C 616.65625 244.058594 614.015625 248.402344 565.917969 290.519531 C 557.480469 177.972656 559.601562 184.71875 543.882812 166.507812 C 526.992188 146.917969 471.015625 95.15625 458.027344 87.097656 C 441.433594 76.808594 378.523438 83.15625 374.703125 83.15625 Z M 422.921875 121.121094 C 422.054688 123.332031 418.730469 136.503906 415.585938 150.179688 C 410.796875 171 410.515625 176.859375 413.878906 185.140625 C 422.09375 205.324219 438.582031 202.542969 523.941406 197.886719 C 528.632812 235.359375 528.296875 242.578125 528.296875 322.515625 C 464.394531 381.507812 423.0625 423.496094 418.539062 423.496094 C 416.738281 423.496094 412.597656 426.296875 409.792969 429.40625 C 401.859375 438.242188 375.007812 513.03125 375.007812 526.410156 C 375.007812 540.710938 384.496094 550.964844 397.710938 550.964844 C 419.164062 550.964844 470.160156 524.753906 477.558594 509.9375 C 481.28125 502.480469 535.230469 452.351562 537.3125 454.417969 C 538.835938 455.902344 532.871094 566.035156 526.429688 604.726562 C 426.324219 617.421875 306.90625 634.191406 214.886719 632.074219 C 179.75 631.265625 158.558594 629.382812 153.785156 626.636719 C 146.539062 622.484375 146.476562 621.828125 146.394531 548.476562 C 146.125 319.59375 118.246094 168.191406 116.011719 144.738281 C 115.421875 138.636719 119.113281 137.875 175.710938 132.632812 C 447.257812 107.484375 423.257812 121.121094 422.921875 121.121094 Z M 494.71875 164.472656 C 494.007812 165.007812 462.960938 167.75 445.910156 169.289062 C 451.734375 145.15625 457.1875 125.449219 457.105469 125.777344 C 465.15625 133.867188 496.023438 164.472656 494.71875 164.472656 Z M 646.753906 302.152344 C 656.835938 313.03125 628.027344 324.648438 508.71875 434.558594 C 487.875 453.746094 470.253906 469.234375 469.222656 469.234375 C 466.804688 469.234375 447.710938 445.175781 445.277344 442.195312 C 499.324219 392.496094 497.953125 393.226562 624.683594 283.996094 C 630.65625 288.363281 639.832031 294.667969 646.753906 302.175781 Z M 410.765625 512.6875 C 410.765625 509.082031 424.898438 467.824219 424.761719 468.246094 C 428.109375 471.925781 447.34375 491.664062 444.917969 495.597656 C 449.144531 495.628906 410.765625 516.75 410.765625 512.6875 Z M 410.765625 512.6875 " fill-opacity="1" fill-rule="nonzero"/><path fill="#0353a4" d="M 207.390625 157.808594 C 171.636719 162.695312 161.273438 167.636719 158.582031 181.097656 C 155.660156 195.710938 167.351562 281.921875 173.542969 291.433594 C 181.933594 304.347656 192.160156 304.898438 240.65625 295.085938 C 292.574219 284.574219 309.453125 276.691406 315.058594 260.355469 C 324.324219 233.316406 316.046875 173.117188 301.285156 160.171875 C 293.960938 153.761719 289.472656 152.863281 266.148438 153.128906 C 240.035156 153.433594 207.746094 157.808594 207.390625 157.808594 Z M 284.660156 242.640625 C 283.386719 247.585938 278.929688 251.613281 272.402344 253.714844 C 255.304688 259.234375 201.027344 270.648438 199.472656 269.054688 C 198.320312 267.878906 189.382812 207.519531 188.941406 197.886719 C 188.820312 195.230469 201.515625 192.648438 232.914062 188.933594 C 266.1875 185 276.1875 184.988281 278.589844 188.875 C 280.707031 188.875 287.214844 232.652344 284.660156 242.640625 Z M 284.660156 242.640625 " fill-opacity="1" fill-rule="nonzero"/><path fill="#0353a4" d="M 300.078125 332.457031 C 243.492188 341.199219 194.265625 349.105469 190.320312 350.078125 C 175.960938 353.632812 176.640625 373.125 191.25 376.761719 C 203.378906 379.808594 423.554688 349.378906 432.84375 343.386719 C 440.929688 338.164062 442.667969 326.1875 436.261719 319.882812 C 425.035156 308.871094 311.703125 332.457031 300.078125 332.457031 Z M 300.078125 332.457031 " fill-opacity="1" fill-rule="nonzero"/><path fill="#0353a4" d="M 212.085938 438.125 C 205.792969 444.414062 209.601562 458.617188 218.300781 461.375 C 227.941406 464.425781 309.589844 453.328125 318.421875 447.769531 C 327.746094 441.890625 327.746094 432.011719 318.421875 425.53125 C 309.816406 419.554688 309.09375 419.570312 257.476562 427.339844 C 257.804688 427.308594 216.792969 433.40625 212.085938 438.125 Z M 212.085938 438.125 " fill-opacity="1" fill-rule="nonzero"/><path fill="#0353a4" d="M 244.421875 524 C 231.054688 524.632812 218.21875 526.765625 215.816406 528.75 C 210.53125 533.117188 210.476562 545.039062 215.730469 550.324219 C 221.070312 555.734375 295.410156 555.515625 306.292969 550.046875 C 316.246094 545.0625 318.566406 534.304688 311.265625 527.019531 C 302.457031 518.207031 274.804688 524 244.421875 524 Z M 244.421875 524 " fill-opacity="1" fill-rule="nonzero"/></svg>